<svg width="85" height="60" viewBox="0 0 85 60" fill="none" xmlns="http://www.w3.org/2000/svg">
<path fill-rule="evenodd" clip-rule="evenodd" d="M45.4364 22.8635C36.7444 15.6659 26.7365 12.8529 20.2377 15.6172L11.8191 7.29428C8.55536 4.0676 3.26376 4.0676 -9.6625e-09 7.29428L14.4971 21.6267C12.0915 28.0569 14.9784 37.6338 22.0517 45.9825L45.4364 22.8635ZM27.972 51.8143C38.2909 60.2947 50.4253 62.6055 56.3379 56.7601C62.2504 50.9147 59.9131 38.9182 51.3352 28.7165L27.972 51.8143Z" fill="#5D2A42"/>
<path fill-rule="evenodd" clip-rule="evenodd" d="M82.5523 47.2326C85.816 50.4592 85.816 55.6907 82.5523 58.9174L68.1179 44.647C61.5882 47.4051 51.4967 44.5228 42.7294 37.2243L66.1252 14.0943C73.298 22.516 76.2539 32.1735 73.8571 38.6362L82.5523 47.2326ZM60.1975 8.26977C49.8134 -0.265309 37.6382 -2.62173 31.7297 3.21959C25.8213 9.06092 28.2048 21.0978 36.8379 31.364L60.1975 8.26977Z" fill="#FB6376"/>
</svg>
